<svg xmlns="http://www.w3.org/2000/svg" width="24" height="24" focusable="false"><g xmlns="http://www.w3.org/2000/svg" id="tuiIconMicOffLarge" transform="translate(-12,-12)"><svg x="50%" y="50%"><svg xmlns="http://www.w3.org/2000/svg" width="24" height="24" fill="none" viewBox="0 0 24 24"><g stroke="currentColor" stroke-linecap="round" stroke-linejoin="round" stroke-width="2" clip-path="url(#a)"><path d="M1 1l22 22M15 9.34V4a3 3 0 0 0-5.94-.6M9 9v3a3 3 0 0 0 5.12 2.12L9 9z"/><path d="M17 16.95A7 7 0 0 1 5 12v-2m14 0v2c0 .412-.037.824-.11 1.23M12 19v4M8 23h8"/></g><defs><clipPath><path fill="#fff" d="M0 0h24v24H0z"/></clipPath></defs></svg></svg></g></svg>