<svg xmlns="http://www.w3.org/2000/svg" width="24" height="24" focusable="false"><g xmlns="http://www.w3.org/2000/svg" id="tuiIconHiliteLarge" transform="translate(-12,-12)"><svg x="50%" y="50%"><svg xmlns="http://www.w3.org/2000/svg" width="24" height="24" fill="none" viewBox="0 0 24 24"><path fill="#E7E8EA" fill-rule="evenodd" d="M0 18H4V22H0V18Z" clip-rule="evenodd"/><path fill="#CBCFD3" fill-rule="evenodd" d="M4 18H8V22H4V18Z" clip-rule="evenodd"/><path fill="#E7E8EA" fill-rule="evenodd" d="M8 18H12V22H8V18Z" clip-rule="evenodd"/><path fill="#CBCFD3" fill-rule="evenodd" d="M12 18H16V22H12V18Z" clip-rule="evenodd"/><path fill="#E7E8EA" fill-rule="evenodd" d="M16 18H20V22H16V18Z" clip-rule="evenodd"/><path fill="#CBCFD3" fill-rule="evenodd" d="M20 18H24V22H20V18Z" clip-rule="evenodd"/><path stroke="currentColor" stroke-linecap="round" stroke-linejoin="round" stroke-width="2" d="M8.18182 16H5L7.72727 12L10 13.7143L8.18182 16Z"/><path stroke="currentColor" stroke-linecap="round" stroke-linejoin="round" stroke-width="2" d="M9 7.5L15.6667 1L19 4L14.2381 12M9 7.5L14.2381 12M9 7.5L7 11L11 14.5L14.2381 12"/></svg></svg></g></svg>